<svg width="1000" height="421" viewBox="0 0 1000 421" fill="none" xmlns="http://www.w3.org/2000/svg">
<path d="M948.708 408.336L800.551 0.426494L800.45 0.156494H797.526L767.017 83.9805L711.474 236.584L711.344 236.464C692.094 219.478 664.935 208.859 630.731 204.905L620.299 203.828L630.648 202.501C687.054 192.365 724.97 156.741 724.97 113.821C724.97 54.9655 669.613 13.8845 590.318 13.8845H425.332V16.8645H473.272V320.984L356.843 0.425494L356.738 0.156494H353.814L323.304 83.9805L205.63 407.286L204.906 407.37C202.895 407.618 200.906 407.816 198.938 407.965C195.978 408.197 193.035 408.335 190.083 408.335H71.183L297.196 16.8635L298.876 13.9215H22.453V135.021H25.386C25.906 76.0355 60.258 16.8635 136.156 16.8635H227.721L0 411.268H306.784V295.246H303.851C303.451 346.658 274.307 395.49 210.931 406.516L208.916 406.861L257.182 274.195H392.39L441.11 408.336H393.05V411.27H581.685V408.336H533.419V205.992H589.111C645.786 205.992 678.291 231.312 678.291 275.438V311.331C678.291 315.286 678.56 321.068 678.857 325.904V326.079L648.923 408.318H609.818V411.25H690.765V408.318H652.08L679.34 333.431C679.396 334.155 679.424 334.591 679.424 334.591L680.176 341.34L680.9 345.803C685.448 373.417 696.01 393.716 712.282 406.135L714.621 407.835C726.984 416.43 742.346 420.783 760.306 420.783C784.096 420.783 799.958 414.851 813.055 400.892L811.338 399.276C799.271 410.414 789.145 414.926 776.457 414.926C754.839 414.926 743.525 388.704 743.525 362.845V312.555C743.64 300.077 741.686 287.666 737.742 275.827L737.204 274.268V274.212H836.1L884.82 408.354H836.76V411.288H1000V408.354L948.708 408.336ZM258.258 271.262L324.865 88.2695L391.323 271.262H258.258ZM533.448 203.048V16.8635H575.958C632.745 16.8635 662.725 50.6215 662.725 114.453C662.725 182.34 645.516 203.048 589.111 203.048H533.448ZM736.052 271.262L735.764 270.538C731.369 259.833 724.971 250.067 716.912 241.763L714.128 238.979L713.831 238.701L768.538 88.2695L834.996 271.262H736.052Z" fill="white"/>
</svg>
